<svg xmlns="http://www.w3.org/2000/svg" xmlns:xlink="http://www.w3.org/1999/xlink" width="500" zoomAndPan="magnify" viewBox="0 0 375 374.999991" height="500" preserveAspectRatio="xMidYMid meet" version="1.0"><defs><clipPath id="108e4c1b8f"><path d="M 281 0 L 370.910156 0 L 370.910156 130.503906 L 281 130.503906 Z M 281 0 " clip-rule="nonzero"/></clipPath><clipPath id="b535aca599"><path d="M 62 107.167969 L 309.472656 107.167969 L 309.472656 375 L 62 375 Z M 62 107.167969 " clip-rule="nonzero"/></clipPath><clipPath id="db31448c07"><path d="M 4.21875 231 L 94 231 L 94 362 L 4.21875 362 Z M 4.21875 231 " clip-rule="nonzero"/></clipPath></defs><g clip-path="url(#108e4c1b8f)"><path fill="#ffffff" d="M 326.253906 6.582031 C 307.917969 6.582031 288.179688 18.316406 288.179688 44.082031 C 288.179688 55.523438 307.398438 87.871094 320.117188 109.265625 C 322.492188 113.269531 324.664062 116.925781 326.527344 120.121094 C 328.214844 117.199219 330.164062 113.894531 332.296875 110.285156 C 344.28125 89.960938 364.335938 55.9375 364.335938 44.082031 C 364.335938 32.453125 360.25 22.730469 352.523438 15.960938 C 345.621094 9.910156 336.296875 6.582031 326.253906 6.582031 Z M 326.527344 130.058594 C 325.335938 130.058594 324.230469 129.410156 323.644531 128.367188 C 321.394531 124.308594 318.179688 118.894531 314.460938 112.628906 C 300.589844 89.292969 281.597656 57.332031 281.597656 44.082031 C 281.597656 30.503906 286.457031 19.066406 295.644531 11.015625 C 303.753906 3.914062 314.625 0 326.253906 0 C 337.894531 0 348.761719 3.914062 356.871094 11.015625 C 366.054688 19.066406 370.914062 30.503906 370.914062 44.082031 C 370.914062 56.6875 355.328125 84.171875 337.964844 113.625 C 334.519531 119.46875 331.542969 124.515625 329.40625 128.367188 C 328.824219 129.410156 327.71875 130.058594 326.527344 130.058594 " fill-opacity="1" fill-rule="nonzero"/></g><path fill="#ffffff" d="M 326.253906 28.625 C 319.171875 28.625 313.425781 34.378906 313.425781 41.457031 C 313.425781 48.535156 319.171875 54.289062 326.253906 54.289062 C 333.332031 54.289062 339.09375 48.535156 339.09375 41.457031 C 339.09375 34.378906 333.332031 28.625 326.253906 28.625 Z M 326.253906 60.871094 C 315.550781 60.871094 306.839844 52.160156 306.839844 41.457031 C 306.839844 30.753906 315.550781 22.046875 326.253906 22.046875 C 336.96875 22.046875 345.679688 30.753906 345.679688 41.457031 C 345.679688 52.160156 336.96875 60.871094 326.253906 60.871094 " fill-opacity="1" fill-rule="nonzero"/><g clip-path="url(#b535aca599)"><path fill="#ffffff" d="M 254.089844 114.613281 C 253.957031 114.613281 253.816406 114.605469 253.679688 114.589844 C 251.527344 114.324219 249.386719 114.125 247.328125 113.996094 C 245.511719 113.890625 244.128906 112.324219 244.242188 110.511719 C 244.355469 108.699219 245.898438 107.308594 247.730469 107.429688 C 249.921875 107.570312 252.195312 107.777344 254.484375 108.058594 C 256.289062 108.277344 257.570312 109.921875 257.347656 111.726562 C 257.140625 113.394531 255.730469 114.613281 254.089844 114.613281 Z M 221.546875 116.976562 C 220.210938 116.976562 218.941406 116.144531 218.460938 114.808594 C 217.835938 113.097656 218.714844 111.210938 220.421875 110.589844 C 222.53125 109.820312 224.8125 109.171875 227.195312 108.667969 C 228.96875 108.296875 230.71875 109.429688 231.09375 111.207031 C 231.472656 112.980469 230.339844 114.730469 228.558594 115.109375 C 226.480469 115.546875 224.503906 116.109375 222.675781 116.773438 C 222.300781 116.90625 221.921875 116.976562 221.546875 116.976562 Z M 279.761719 120.332031 C 279.429688 120.332031 279.105469 120.285156 278.769531 120.183594 C 276.710938 119.535156 274.625 118.921875 272.570312 118.367188 C 270.820312 117.890625 269.785156 116.082031 270.257812 114.332031 C 270.738281 112.574219 272.542969 111.539062 274.292969 112.019531 C 276.425781 112.597656 278.605469 113.230469 280.75 113.90625 C 282.480469 114.445312 283.441406 116.296875 282.898438 118.027344 C 282.453125 119.433594 281.160156 120.332031 279.761719 120.332031 Z M 304.199219 130.058594 C 303.71875 130.058594 303.230469 129.957031 302.757812 129.726562 C 300.847656 128.796875 298.875 127.882812 296.902344 127.015625 C 295.242188 126.28125 294.488281 124.335938 295.21875 122.675781 C 295.953125 121.011719 297.902344 120.257812 299.5625 120.996094 C 301.609375 121.898438 303.652344 122.84375 305.640625 123.8125 C 307.273438 124.605469 307.953125 126.574219 307.164062 128.207031 C 306.589844 129.378906 305.417969 130.058594 304.199219 130.058594 Z M 203.074219 134.460938 C 202.6875 134.460938 202.292969 134.394531 201.910156 134.253906 C 200.210938 133.613281 199.355469 131.714844 199.996094 130.011719 C 200.867188 127.691406 201.984375 125.503906 203.308594 123.507812 C 204.3125 121.996094 206.359375 121.582031 207.875 122.589844 C 209.382812 123.59375 209.792969 125.632812 208.789062 127.148438 C 207.738281 128.730469 206.855469 130.472656 206.152344 132.332031 C 205.65625 133.648438 204.40625 134.460938 203.074219 134.460938 Z M 201.882812 160.425781 C 200.324219 160.425781 198.9375 159.308594 198.644531 157.71875 C 198.222656 155.386719 197.914062 153.097656 197.71875 150.917969 C 197.546875 149.109375 198.882812 147.507812 200.691406 147.34375 C 202.511719 147.183594 204.105469 148.511719 204.265625 150.324219 C 204.445312 152.3125 204.738281 154.40625 205.121094 156.546875 C 205.445312 158.335938 204.257812 160.050781 202.472656 160.375 C 202.269531 160.410156 202.070312 160.425781 201.882812 160.425781 Z M 208.570312 185.867188 C 207.105469 185.867188 205.761719 184.886719 205.378906 183.402344 C 204.863281 181.410156 204.296875 179.292969 203.703125 177.101562 C 203.210938 175.347656 204.238281 173.535156 205.996094 173.054688 C 207.746094 172.570312 209.558594 173.59375 210.042969 175.347656 C 210.65625 177.578125 211.234375 179.734375 211.753906 181.761719 C 212.210938 183.523438 211.152344 185.316406 209.382812 185.765625 C 209.105469 185.835938 208.832031 185.867188 208.570312 185.867188 Z M 213.285156 211.714844 C 211.535156 211.714844 210.078125 210.34375 210.003906 208.582031 C 209.902344 206.746094 209.703125 204.644531 209.367188 202.347656 C 209.117188 200.546875 210.371094 198.878906 212.167969 198.625 C 213.96875 198.371094 215.632812 199.617188 215.886719 201.417969 C 216.238281 203.921875 216.46875 206.222656 216.570312 208.269531 C 216.660156 210.082031 215.253906 211.628906 213.449219 211.710938 C 213.386719 211.714844 213.332031 211.714844 213.285156 211.714844 Z M 171.78125 219.183594 C 170.347656 219.183594 169.039062 218.25 168.613281 216.816406 C 168.113281 215.070312 169.109375 213.246094 170.855469 212.734375 C 173.15625 212.054688 175.777344 211.804688 178.492188 211.96875 C 180.300781 212.074219 181.691406 213.628906 181.574219 215.445312 C 181.472656 217.257812 179.910156 218.636719 178.101562 218.535156 C 177.695312 218.511719 177.285156 218.496094 176.871094 218.496094 C 175.339844 218.496094 173.964844 218.675781 172.707031 219.046875 C 172.398438 219.140625 172.082031 219.183594 171.78125 219.183594 Z M 203.75 225.082031 C 203.605469 225.082031 203.460938 225.070312 203.3125 225.054688 C 201.417969 224.804688 199.277344 224.289062 196.375 223.371094 C 194.628906 222.832031 193.671875 220.984375 194.210938 219.246094 C 194.761719 217.515625 196.605469 216.554688 198.34375 217.09375 C 200.867188 217.890625 202.671875 218.332031 204.171875 218.527344 C 205.972656 218.765625 207.238281 220.410156 207.007812 222.214844 C 206.792969 223.871094 205.378906 225.082031 203.75 225.082031 Z M 157.570312 239.851562 C 157.230469 239.851562 156.875 239.796875 156.53125 239.683594 C 154.808594 239.109375 153.875 237.246094 154.4375 235.523438 C 154.925781 234.0625 155.359375 232.65625 155.726562 231.351562 C 155.921875 230.625 156.136719 229.925781 156.351562 229.25 C 156.917969 227.523438 158.769531 226.578125 160.5 227.136719 C 162.230469 227.699219 163.171875 229.554688 162.617188 231.28125 C 162.421875 231.867188 162.242188 232.472656 162.070312 233.109375 C 161.667969 234.539062 161.21875 236.007812 160.6875 237.59375 C 160.234375 238.976562 158.949219 239.851562 157.570312 239.851562 Z M 148.199219 264.457031 C 147.839844 264.457031 147.46875 264.394531 147.109375 264.265625 C 145.398438 263.667969 144.496094 261.792969 145.097656 260.078125 C 145.742188 258.234375 146.488281 256.242188 147.4375 253.800781 C 148.09375 252.109375 150.007812 251.273438 151.707031 251.933594 C 153.390625 252.59375 154.234375 254.503906 153.574219 256.199219 C 152.648438 258.5625 151.925781 260.484375 151.3125 262.25 C 150.828125 263.609375 149.566406 264.457031 148.199219 264.457031 Z M 146.722656 289.972656 C 145.558594 289.972656 144.4375 289.351562 143.839844 288.261719 C 142.625 286.046875 141.847656 283.546875 141.527344 280.828125 C 141.316406 279.023438 142.609375 277.386719 144.410156 277.175781 C 146.222656 276.964844 147.855469 278.253906 148.0625 280.058594 C 148.292969 281.964844 148.800781 283.609375 149.613281 285.105469 C 150.488281 286.699219 149.898438 288.699219 148.304688 289.574219 C 147.804688 289.84375 147.269531 289.972656 146.722656 289.972656 Z M 219.753906 290.238281 C 219.703125 290.238281 219.644531 290.238281 219.585938 290.234375 C 217.96875 290.148438 216.34375 290.082031 214.679688 290.035156 C 214.570312 290.03125 214.46875 290.035156 214.347656 290.027344 C 214.035156 290.027344 213.726562 290.042969 213.421875 290.066406 C 211.609375 290.191406 210.035156 288.84375 209.898438 287.03125 C 209.757812 285.21875 211.125 283.640625 212.933594 283.503906 C 213.421875 283.464844 213.875 283.445312 214.363281 283.449219 C 214.535156 283.449219 214.703125 283.453125 214.875 283.457031 C 216.589844 283.507812 218.269531 283.578125 219.925781 283.664062 C 221.742188 283.757812 223.140625 285.304688 223.035156 287.121094 C 222.949219 288.878906 221.492188 290.238281 219.753906 290.238281 Z M 245.898438 293.25 C 245.699219 293.25 245.492188 293.230469 245.300781 293.199219 C 243.207031 292.8125 241.058594 292.457031 238.910156 292.140625 C 237.121094 291.878906 235.875 290.203125 236.140625 288.40625 C 236.410156 286.613281 238.070312 285.371094 239.882812 285.636719 C 242.101562 285.964844 244.320312 286.328125 246.480469 286.726562 C 248.273438 287.054688 249.453125 288.765625 249.128906 290.550781 C 248.835938 292.136719 247.449219 293.25 245.898438 293.25 Z M 188.496094 298.988281 C 187.183594 298.988281 185.9375 298.199219 185.421875 296.90625 C 184.765625 295.21875 185.589844 293.304688 187.285156 292.636719 C 189.285156 291.847656 191.332031 290.964844 193.230469 290.125 C 194.898438 289.394531 196.84375 290.148438 197.570312 291.8125 C 198.308594 293.476562 197.546875 295.417969 195.882812 296.148438 C 193.917969 297.011719 191.804688 297.929688 189.703125 298.757812 C 189.300781 298.917969 188.898438 298.988281 188.496094 298.988281 Z M 271.367188 299.835938 C 271.011719 299.835938 270.652344 299.777344 270.300781 299.664062 C 268.269531 298.972656 266.195312 298.308594 264.144531 297.699219 C 262.40625 297.179688 261.410156 295.34375 261.933594 293.601562 C 262.449219 291.863281 264.285156 290.871094 266.027344 291.390625 C 268.15625 292.03125 270.300781 292.714844 272.414062 293.429688 C 274.136719 294.015625 275.058594 295.882812 274.472656 297.601562 C 274.011719 298.972656 272.734375 299.835938 271.367188 299.835938 Z M 169.261719 301.742188 C 169.089844 301.742188 168.914062 301.734375 168.746094 301.703125 C 166.328125 301.324219 164.046875 300.855469 161.972656 300.308594 C 160.21875 299.847656 159.164062 298.050781 159.625 296.292969 C 160.085938 294.535156 161.890625 293.484375 163.644531 293.949219 C 165.503906 294.4375 167.566406 294.859375 169.761719 295.207031 C 171.558594 295.492188 172.792969 297.171875 172.507812 298.96875 C 172.25 300.589844 170.84375 301.742188 169.261719 301.742188 Z M 295.378906 310.410156 C 294.667969 310.410156 293.949219 310.179688 293.347656 309.703125 C 292.0625 308.699219 290.675781 307.859375 289.210938 307.214844 L 288.378906 306.84375 C 286.714844 306.113281 285.960938 304.171875 286.695312 302.507812 C 287.425781 300.84375 289.371094 300.09375 291.035156 300.828125 L 291.859375 301.191406 C 293.835938 302.058594 295.707031 303.183594 297.421875 304.535156 C 298.84375 305.660156 299.089844 307.726562 297.96875 309.152344 C 297.316406 309.976562 296.355469 310.410156 295.378906 310.410156 Z M 306.007812 333.597656 C 304.242188 333.597656 302.773438 332.195312 302.722656 330.417969 C 302.65625 328.398438 302.40625 326.40625 301.996094 324.480469 C 301.609375 322.703125 302.742188 320.957031 304.519531 320.570312 C 306.300781 320.1875 308.046875 321.316406 308.433594 323.09375 C 308.933594 325.398438 309.222656 327.792969 309.300781 330.203125 C 309.359375 332.019531 307.9375 333.539062 306.117188 333.59375 C 306.085938 333.597656 306.039062 333.597656 306.007812 333.597656 Z M 297.925781 358.066406 C 297.195312 358.066406 296.46875 357.824219 295.859375 357.328125 C 294.445312 356.1875 294.222656 354.113281 295.371094 352.699219 C 296.613281 351.15625 297.726562 349.488281 298.675781 347.742188 C 299.539062 346.140625 301.542969 345.546875 303.136719 346.410156 C 304.738281 347.277344 305.332031 349.273438 304.46875 350.871094 C 303.328125 352.972656 301.988281 354.988281 300.488281 356.839844 C 299.835938 357.644531 298.886719 358.066406 297.925781 358.066406 Z M 71.914062 365.011719 C 71.761719 365.011719 71.597656 365.003906 71.445312 364.976562 L 64.917969 364.042969 C 63.117188 363.785156 61.875 362.117188 62.136719 360.328125 C 62.390625 358.527344 64.054688 357.277344 65.855469 357.53125 L 72.378906 358.464844 C 74.175781 358.726562 75.429688 360.382812 75.171875 362.183594 C 74.929688 363.828125 73.523438 365.011719 71.914062 365.011719 Z M 98.003906 368.617188 C 97.867188 368.617188 97.71875 368.609375 97.578125 368.585938 C 95.367188 368.304688 93.1875 368.011719 91.039062 367.71875 C 89.238281 367.476562 87.96875 365.820312 88.21875 364.019531 C 88.457031 362.21875 90.121094 360.960938 91.921875 361.199219 C 94.050781 361.492188 96.234375 361.773438 98.429688 362.066406 C 100.234375 362.292969 101.503906 363.949219 101.269531 365.75 C 101.050781 367.410156 99.636719 368.617188 98.003906 368.617188 Z M 255.328125 369.054688 C 255.308594 369.054688 255.292969 369.054688 255.273438 369.054688 C 253.929688 369.03125 252.609375 369.035156 251.238281 369.011719 C 250.421875 369.011719 249.597656 369.019531 248.785156 369.03125 C 246.992188 369.070312 245.476562 367.609375 245.453125 365.792969 C 245.429688 363.976562 246.875 362.484375 248.691406 362.460938 C 249.554688 362.441406 250.414062 362.425781 251.296875 362.441406 C 252.648438 362.441406 254.015625 362.449219 255.378906 362.476562 C 257.191406 362.5 258.644531 364.003906 258.613281 365.820312 C 258.582031 367.617188 257.113281 369.054688 255.328125 369.054688 Z M 275.066406 369.070312 C 273.339844 369.070312 271.890625 367.738281 271.785156 365.988281 C 271.671875 364.171875 273.050781 362.613281 274.859375 362.5 C 277.1875 362.359375 279.199219 362.117188 281 361.78125 C 282.777344 361.449219 284.5 362.621094 284.835938 364.410156 C 285.171875 366.195312 283.996094 367.914062 282.203125 368.25 C 280.140625 368.636719 277.875 368.902344 275.269531 369.058594 C 275.203125 369.070312 275.136719 369.070312 275.066406 369.070312 Z M 124.167969 371.703125 C 124.054688 371.703125 123.933594 371.695312 123.824219 371.6875 C 121.621094 371.453125 119.425781 371.214844 117.246094 370.972656 C 115.441406 370.769531 114.144531 369.152344 114.339844 367.34375 C 114.546875 365.535156 116.175781 364.242188 117.976562 364.4375 C 120.136719 364.679688 122.316406 364.90625 124.503906 365.140625 C 126.304688 365.328125 127.628906 366.945312 127.4375 368.75 C 127.261719 370.445312 125.828125 371.703125 124.167969 371.703125 Z M 222.667969 372.402344 C 221.054688 372.402344 219.648438 371.222656 219.417969 369.585938 C 219.152344 367.789062 220.398438 366.121094 222.195312 365.859375 C 224.359375 365.542969 226.507812 365.191406 228.582031 364.8125 C 230.363281 364.488281 232.078125 365.679688 232.40625 367.46875 C 232.730469 369.253906 231.539062 370.96875 229.757812 371.292969 C 227.601562 371.679688 225.382812 372.042969 223.148438 372.367188 C 222.984375 372.386719 222.820312 372.402344 222.667969 372.402344 Z M 150.410156 373.957031 C 150.339844 373.957031 150.265625 373.949219 150.195312 373.949219 C 147.988281 373.800781 145.785156 373.636719 143.589844 373.476562 C 141.773438 373.339844 140.414062 371.753906 140.554688 369.945312 C 140.691406 368.132812 142.28125 366.773438 144.082031 366.917969 C 146.261719 367.085938 148.441406 367.242188 150.625 367.375 C 152.441406 367.492188 153.8125 369.058594 153.695312 370.878906 C 153.585938 372.617188 152.136719 373.957031 150.410156 373.957031 Z M 196.457031 374.753906 C 194.699219 374.753906 193.246094 373.371094 193.175781 371.597656 C 193.097656 369.78125 194.5 368.25 196.320312 368.179688 C 198.523438 368.089844 200.710938 367.96875 202.824219 367.839844 C 204.625 367.71875 206.203125 369.101562 206.3125 370.914062 C 206.433594 372.71875 205.054688 374.289062 203.238281 374.402344 C 201.078125 374.539062 198.84375 374.660156 196.597656 374.753906 C 196.546875 374.753906 196.5 374.753906 196.457031 374.753906 Z M 176.726562 375.019531 C 176.707031 375.019531 176.699219 375.019531 176.679688 375.019531 C 174.480469 374.992188 172.265625 374.9375 170.058594 374.878906 C 168.238281 374.828125 166.8125 373.320312 166.851562 371.503906 C 166.902344 369.6875 168.429688 368.25 170.238281 368.308594 C 172.410156 368.371094 174.589844 368.410156 176.757812 368.4375 C 178.574219 368.464844 180.035156 369.953125 180.019531 371.769531 C 179.992188 373.570312 178.523438 375.019531 176.726562 375.019531 " fill-opacity="1" fill-rule="nonzero"/></g><g clip-path="url(#db31448c07)"><path fill="#ffffff" d="M 48.890625 238.34375 C 30.550781 238.34375 10.816406 250.082031 10.816406 275.84375 C 10.816406 287.285156 30.035156 319.628906 42.746094 341.03125 C 45.128906 345.035156 47.296875 348.691406 49.160156 351.886719 C 50.855469 348.964844 52.800781 345.65625 54.925781 342.050781 C 66.910156 321.726562 86.964844 287.703125 86.964844 275.84375 C 86.964844 264.21875 82.886719 254.492188 75.164062 247.726562 C 68.253906 241.675781 58.925781 238.34375 48.890625 238.34375 Z M 49.160156 361.824219 C 47.964844 361.824219 46.867188 361.175781 46.285156 360.128906 C 44.03125 356.066406 40.804688 350.660156 37.085938 344.390625 C 23.222656 321.054688 4.234375 289.09375 4.234375 275.84375 C 4.234375 262.265625 9.09375 250.832031 18.28125 242.777344 C 26.382812 235.675781 37.253906 231.765625 48.890625 231.765625 C 60.519531 231.765625 71.402344 235.675781 79.496094 242.777344 C 88.6875 250.832031 93.546875 262.265625 93.546875 275.84375 C 93.546875 288.453125 77.964844 315.9375 60.601562 345.394531 C 57.152344 351.238281 54.179688 356.28125 52.039062 360.128906 C 51.453125 361.175781 50.359375 361.824219 49.160156 361.824219 " fill-opacity="1" fill-rule="nonzero"/></g><path fill="#ffffff" d="M 48.890625 260.390625 C 41.8125 260.390625 36.054688 266.144531 36.054688 273.222656 C 36.054688 280.296875 41.8125 286.054688 48.890625 286.054688 C 55.972656 286.054688 61.734375 280.296875 61.734375 273.222656 C 61.734375 266.144531 55.972656 260.390625 48.890625 260.390625 Z M 48.890625 292.632812 C 38.175781 292.632812 29.46875 283.925781 29.46875 273.222656 C 29.46875 262.519531 38.175781 253.8125 48.890625 253.8125 C 59.597656 253.8125 68.3125 262.519531 68.3125 273.222656 C 68.3125 283.925781 59.597656 292.632812 48.890625 292.632812 " fill-opacity="1" fill-rule="nonzero"/></svg>