<svg xmlns="http://www.w3.org/2000/svg" xmlns:xlink="http://www.w3.org/1999/xlink" width="500" zoomAndPan="magnify" viewBox="0 0 375 374.999991" height="500" preserveAspectRatio="xMidYMid meet" version="1.0"><defs><clipPath id="b42b132916"><path d="M 74 18.75 L 186 18.75 L 186 356.25 L 74 356.25 Z M 74 18.75 " clip-rule="nonzero"/></clipPath><clipPath id="348a0d156a"><path d="M 0.261719 100 L 53 100 L 53 275 L 0.261719 275 Z M 0.261719 100 " clip-rule="nonzero"/></clipPath><clipPath id="c34909cc7e"><path d="M 207 184 L 374.511719 184 L 374.511719 352 L 207 352 Z M 207 184 " clip-rule="nonzero"/></clipPath></defs><g clip-path="url(#b42b132916)"><path fill="#ffffff" d="M 74.492188 274.15625 L 185.839844 356.167969 L 185.839844 18.832031 L 74.492188 100.84375 Z M 74.492188 274.15625 " fill-opacity="1" fill-rule="nonzero"/></g><g clip-path="url(#348a0d156a)"><path fill="#ffffff" d="M 0.261719 100.84375 L 52.839844 100.84375 L 52.839844 274.15625 L 0.261719 274.15625 Z M 0.261719 100.84375 " fill-opacity="1" fill-rule="nonzero"/></g><g clip-path="url(#c34909cc7e)"><path fill="#ffffff" d="M 291 184.40625 C 244.953125 184.40625 207.488281 221.890625 207.488281 267.964844 C 207.488281 314.039062 244.953125 351.523438 291 351.523438 C 337.046875 351.523438 374.511719 314.039062 374.511719 267.964844 C 374.511719 221.890625 337.046875 184.40625 291 184.40625 Z M 291 202.972656 C 305.566406 202.972656 318.980469 207.855469 329.824219 215.988281 L 239.054688 306.8125 C 230.925781 295.960938 226.046875 282.539062 226.046875 267.964844 C 226.046875 232.128906 255.1875 202.972656 291 202.972656 Z M 291 332.957031 C 276.433594 332.957031 263.019531 328.074219 252.171875 319.941406 L 342.945312 229.117188 C 351.074219 239.96875 355.953125 253.390625 355.953125 267.964844 C 355.953125 303.800781 326.8125 332.957031 291 332.957031 Z M 291 332.957031 " fill-opacity="1" fill-rule="nonzero"/></g></svg>