<svg xmlns="http://www.w3.org/2000/svg" xmlns:xlink="http://www.w3.org/1999/xlink" width="500" zoomAndPan="magnify" viewBox="0 0 375 374.999991" height="500" preserveAspectRatio="xMidYMid meet" version="1.0"><defs><clipPath id="2f8ed0b553"><path d="M 72 22.734375 L 182 22.734375 L 182 351.984375 L 72 351.984375 Z M 72 22.734375 " clip-rule="nonzero"/></clipPath></defs><g clip-path="url(#2f8ed0b553)"><path fill="#ffffff" d="M 72.617188 271.9375 L 181.453125 351.984375 L 181.453125 22.734375 L 72.617188 102.78125 Z M 72.617188 271.9375 " fill-opacity="1" fill-rule="nonzero"/></g><path fill="#ffffff" d="M 0.0585938 102.78125 L 51.453125 102.78125 L 51.453125 271.9375 L 0.0585938 271.9375 Z M 0.0585938 102.78125 " fill-opacity="1" fill-rule="nonzero"/><path fill="#ffffff" d="M 205.40625 141.230469 C 201.867188 144.769531 201.867188 150.507812 205.410156 154.046875 C 214.316406 162.945312 219.222656 174.773438 219.222656 187.359375 C 219.222656 199.945312 214.316406 211.773438 205.410156 220.675781 C 201.867188 224.214844 201.867188 229.953125 205.410156 233.492188 C 207.179688 235.261719 209.503906 236.144531 211.820312 236.144531 C 214.140625 236.144531 216.460938 235.261719 218.234375 233.492188 C 230.570312 221.167969 237.363281 204.78125 237.363281 187.359375 C 237.363281 169.933594 230.570312 153.550781 218.234375 141.230469 C 214.691406 137.695312 208.949219 137.691406 205.40625 141.230469 Z M 205.40625 141.230469 " fill-opacity="1" fill-rule="nonzero"/><path fill="#ffffff" d="M 266.84375 92.671875 C 263.304688 89.132812 257.566406 89.128906 254.019531 92.664062 C 250.476562 96.203125 250.472656 101.9375 254.015625 105.480469 C 275.894531 127.371094 287.945312 156.445312 287.945312 187.359375 C 287.945312 218.273438 275.894531 247.347656 254.015625 269.234375 C 250.472656 272.773438 250.476562 278.511719 254.019531 282.046875 C 255.792969 283.816406 258.109375 284.699219 260.429688 284.699219 C 262.753906 284.699219 265.074219 283.816406 266.84375 282.042969 C 292.148438 256.738281 306.082031 223.113281 306.082031 187.359375 C 306.085938 151.609375 292.148438 117.980469 266.84375 92.671875 Z M 266.84375 92.671875 " fill-opacity="1" fill-rule="nonzero"/><path fill="#ffffff" d="M 315.414062 44.125 C 311.871094 40.589844 306.125 40.589844 302.589844 44.125 C 299.042969 47.664062 299.042969 53.402344 302.589844 56.941406 C 337.453125 91.777344 356.65625 138.09375 356.65625 187.359375 C 356.65625 236.617188 337.453125 282.933594 302.585938 317.777344 C 299.042969 321.320312 299.042969 327.054688 302.585938 330.59375 C 304.355469 332.363281 306.679688 333.246094 308.996094 333.246094 C 311.316406 333.246094 313.640625 332.363281 315.410156 330.59375 C 353.703125 292.324219 374.792969 241.457031 374.792969 187.359375 C 374.792969 133.25 353.703125 82.382812 315.414062 44.125 Z M 315.414062 44.125 " fill-opacity="1" fill-rule="nonzero"/></svg>